<svg width="609.8800170898437px" height="272.03999023437495px" xmlns="http://www.w3.org/2000/svg" viewBox="-54.94000854492185 -61.01999511718748 609.8800170898437 272.03999023437495" style="background: none;" preserveAspectRatio="xMidYMid"><defs><filter id="editing-offset"><feFlood flood-color="#f00" flood-opacity="0.5" result="c1"></feFlood><feFlood flood-color="#0f0" flood-opacity="0.5" result="c2"></feFlood><feFlood flood-color="#0000ff" flood-opacity="0.5" result="c3"></feFlood><feComposite operator="in" in="c1" in2="SourceAlpha" result="text-c1"></feComposite><feComposite operator="in" in="c2" in2="SourceAlpha" result="text-c2"></feComposite><feComposite operator="in" in="c3" in2="SourceAlpha" result="text-c3"></feComposite><feOffset in="text-c1" dx="-10" dy="0" result="text1"></feOffset><feOffset in="text-c2" dx="10" dy="0" result="text2"></feOffset><feOffset in="text-c3" dx="0" dy="0" result="text3"></feOffset><feMerge><feMergeNode in="text1"></feMergeNode><feMergeNode in="text2"></feMergeNode><feMergeNode in="text3"></feMergeNode></feMerge></filter></defs><g filter="url(#editing-offset)"><g transform="translate(38.89821529388428, 130.1050033569336)"><path d="M71.59 3.14L71.59 3.14L71.59 3.14Q51.50 3.14 49.61-25.43L49.61-25.43L22.61-25.43L22.61-25.43Q19.47-18.21 17.27-11.93L17.27-11.93L13.19 0L-8.79 0L40.66-103.62L74.42-103.62L81.01-27.32L81.01-27.32Q82.58-10.83 88.86-5.97L88.86-5.97L88.86-5.97Q84.31 3.14 71.59 3.14ZM36.11-56.83L27.48-36.90L49.14-36.90L47.26-77.24L47.26-81.48L36.11-56.83ZM110.53-76.46L110.53-76.46L110.53-76.46Q105.19-80.54 105.19-89.25L105.19-89.25L105.19-89.25Q105.19-97.97 110.92-102.52L110.92-102.52L110.92-102.52Q116.65-107.07 126.54-107.07L126.54-107.07L126.54-107.07Q132.82-107.07 147.74-104.88L147.74-104.88L158.41-103.31L158.41-103.31Q163.75-102.68 169.32-102.68L169.32-102.68L169.32-102.68Q174.90-102.68 178.67-105.03L178.67-105.03L178.67-105.03Q184.32-100.01 184.32-92.79L184.32-92.79L184.32-92.79Q184.32-85.56 177.88-80.38L177.88-80.38L177.88-80.38Q171.29-74.89 162.81-74.89L162.81-74.89L162.81-74.89Q158.73-74.89 152.13-75.99L152.13-75.99L152.13-75.99Q144.44-51.81 144.44-35.01L144.44-35.01L144.44-35.01Q144.44-18.21 152.92-9.42L152.92-9.42L152.92-9.42Q148.99-2.35 143.18 0.39L143.18 0.39L143.18 0.39Q137.38 3.14 128.66 3.14L128.66 3.14L128.66 3.14Q119.95 3.14 114.53-1.65L114.53-1.65L114.53-1.65Q109.12-6.44 109.12-16.33L109.12-16.33L109.12-16.33Q109.12-27.79 115.40-46.63L115.40-46.63L115.40-46.63Q121.68-65.31 131.09-79.60L131.09-79.60L131.09-79.60Q126.54-80.07 121.83-80.07L121.83-80.07L121.83-80.07Q112.10-80.07 110.53-76.46ZM181.65-38.31L181.65-38.31L181.65-38.31Q181.65-67.98 197.03-86.66L197.03-86.66L197.03-86.66Q213.36-106.92 241.78-106.92L241.78-106.92L241.78-106.92Q262.35-106.92 272.71-96.95L272.71-96.95L272.71-96.95Q283.07-86.98 283.07-65.94L283.07-65.94L283.07-65.94Q283.07-33.91 266.74-15.23L266.74-15.23L266.74-15.23Q250.57 3.14 223.41 3.14L223.41 3.14L223.41 3.14Q202.22 3.14 191.93-7.46L191.93-7.46L191.93-7.46Q181.65-18.05 181.65-38.31ZM222.94-70.81L222.94-70.81L222.94-70.81Q215.88-42.55 215.88-20.25L215.88-20.25L215.88-20.25Q215.88-14.92 217.68-11.46L217.68-11.46L217.68-11.46Q219.49-8.01 224.27-8.01L224.27-8.01L224.27-8.01Q229.06-8.01 232.05-10.28L232.05-10.28L232.05-10.28Q235.03-12.56 237.38-17.74L237.38-17.74L237.38-17.74Q241.15-26.22 244.68-44.20L244.68-44.20L244.68-44.20Q248.22-62.17 248.53-69.63L248.53-69.63L248.53-69.63Q248.84-77.09 248.84-82.74L248.84-82.74L248.84-82.74Q248.84-88.39 247.12-92.00L247.12-92.00L247.12-92.00Q245.39-95.61 240.76-95.61L240.76-95.61L240.76-95.61Q236.13-95.61 232.99-92.79L232.99-92.79L232.99-92.79Q227.18-87.45 222.94-70.81ZM304.11 0L286.05 0L314.47-103.62L347.28-103.62L354.51-44.43L383.71-103.62L411.18-103.62L414.01-26.06L414.01-26.06Q414.64-10.68 422.17-5.97L422.17-5.97L422.17-5.97Q420.45-2.83 415.42 0.16L415.42 0.16L415.42 0.16Q410.40 3.14 403.73 3.14L403.73 3.14L403.73 3.14Q397.05 3.14 393.13 1.26L393.13 1.26L393.13 1.26Q389.20-0.63 387.00-3.77L387.00-3.77L387.00-3.77Q383.08-9.42 383.08-20.25L383.08-20.25L383.08-68.77L352.15 0L332.68 0L321.69-70.49L304.11 0Z"></path></g></g><style>text {
  font-size: 64px;
  font-family: Arial Black;
  dominant-baseline: central;
  text-anchor: middle;
}</style></svg>